<svg width="398" height="412" viewBox="0 0 398 412" fill="none" xmlns="http://www.w3.org/2000/svg">
<path d="M398 257.499V386.25C398 400.469 386.861 412 373.125 412H248.75C235.014 412 223.875 400.469 223.875 386.25V257.499C223.875 243.28 235.014 231.749 248.75 231.749H373.125C386.861 231.749 398 243.28 398 257.499ZM99.5 205.999C44.5496 205.999 0 252.116 0 309C0 365.883 44.5496 412 99.5 412C154.45 412 199 365.883 199 309C199 252.116 154.45 205.999 99.5 205.999ZM372.371 180.249C392.069 180.249 404.382 158.788 394.533 141.624L320.662 12.8731C310.813 -4.29102 286.187 -4.29102 276.338 12.8731L202.467 141.624C192.618 158.788 204.931 180.249 224.629 180.249H372.371Z" fill="#7B5BEC"/>
</svg>
