<svg width="34" height="33" viewBox="0 0 34 33" fill="none" xmlns="http://www.w3.org/2000/svg">
<path d="M31.1342 7.63072C26.198 -0.000252252 16.12 -2.26892 8.30439 2.47466C0.69445 7.21823 -1.77364 17.5304 3.16254 25.1613L3.57389 25.7801L1.9285 31.9673L8.09872 30.3174L8.71574 30.7299C11.3895 32.1736 14.2689 32.9985 17.1484 32.9985C20.2335 32.9985 23.3186 32.1736 25.9924 30.5236C33.6023 25.5738 35.8647 15.4679 31.1342 7.63072ZM26.8151 23.5114C25.9924 24.7488 24.964 25.5738 23.5243 25.7801C22.7016 25.7801 21.6732 26.1925 17.5597 24.5426C14.0633 22.8927 11.1838 20.2115 9.12709 17.1179C7.89304 15.6742 7.27602 13.818 7.07035 11.9618C7.07035 10.3119 7.68737 8.86817 8.71574 7.83696C9.12709 7.42448 9.53844 7.21823 9.94978 7.21823H10.9782C11.3895 7.21823 11.8009 7.21823 12.0065 8.0432C12.4179 9.07442 13.4462 11.5493 13.4462 11.7556C13.6519 11.9618 13.6519 12.3743 13.4462 12.5805C13.6519 12.993 13.4462 13.4055 13.2406 13.6117C13.0349 13.818 12.8292 14.2305 12.6235 14.4367C12.2122 14.643 12.0065 15.0554 12.2122 15.4679C13.0349 16.7054 14.0633 17.9428 15.0916 18.9741C16.3257 20.0053 17.5597 20.8302 18.9994 21.449C19.4108 21.6552 19.8221 21.6552 20.0278 21.2427C20.2335 20.8302 21.2619 19.799 21.6732 19.3865C22.0846 18.9741 22.2902 18.9741 22.7016 19.1803L25.9924 20.8302C26.4037 21.0365 26.8151 21.2427 27.0207 21.449C27.2264 22.0677 27.2264 22.8927 26.8151 23.5114Z" fill="white"/>
</svg>
