<svg width="405" height="398" viewBox="0 0 405 398" fill="none" xmlns="http://www.w3.org/2000/svg">
<path d="M91.125 124.375C82.6875 124.375 75.5156 121.473 69.6094 115.669C63.7031 109.865 60.75 102.817 60.75 94.525V29.85C60.75 21.5583 63.7031 14.5104 69.6094 8.70625C75.5156 2.90208 82.6875 0 91.125 0H313.875C322.312 0 329.484 2.90208 335.391 8.70625C341.297 14.5104 344.25 21.5583 344.25 29.85V94.525C344.25 102.817 341.297 109.865 335.391 115.669C329.484 121.473 322.312 124.375 313.875 124.375H91.125ZM98.7188 94.525H306.281C308.306 94.525 310.078 93.7787 311.597 92.2862C313.116 90.7937 313.875 89.0525 313.875 87.0625V37.3125C313.875 35.3225 313.116 33.5812 311.597 32.0887C310.078 30.5962 308.306 29.85 306.281 29.85H98.7188C96.6937 29.85 94.9219 30.5962 93.4031 32.0887C91.8844 33.5812 91.125 35.3225 91.125 37.3125V87.0625C91.125 89.0525 91.8844 90.7937 93.4031 92.2862C94.9219 93.7787 96.6937 94.525 98.7188 94.525ZM30.375 398C21.9375 398 14.7656 395.098 8.85938 389.294C2.95313 383.49 0 376.442 0 368.15V333.325H405V368.15C405 376.442 402.047 383.49 396.141 389.294C390.234 395.098 383.062 398 374.625 398H30.375ZM0 318.4L73.4062 157.21C76.1062 151.572 79.8188 147.177 84.5438 144.026C89.2688 140.875 94.6687 139.3 100.744 139.3H304.256C310.331 139.3 315.731 140.875 320.456 144.026C325.181 147.177 328.894 151.572 331.594 157.21L405 318.4H0ZM131.625 278.6H151.875C154.575 278.6 156.938 277.605 158.963 275.615C160.988 273.625 162 271.303 162 268.65C162 265.997 160.988 263.675 158.963 261.685C156.938 259.695 154.575 258.7 151.875 258.7H131.625C128.925 258.7 126.562 259.695 124.537 261.685C122.512 263.675 121.5 265.997 121.5 268.65C121.5 271.303 122.512 273.625 124.537 275.615C126.562 277.605 128.925 278.6 131.625 278.6ZM131.625 238.8H151.875C154.575 238.8 156.938 237.805 158.963 235.815C160.988 233.825 162 231.503 162 228.85C162 226.197 160.988 223.875 158.963 221.885C156.938 219.895 154.575 218.9 151.875 218.9H131.625C128.925 218.9 126.562 219.895 124.537 221.885C122.512 223.875 121.5 226.197 121.5 228.85C121.5 231.503 122.512 233.825 124.537 235.815C126.562 237.805 128.925 238.8 131.625 238.8ZM131.625 199H151.875C154.575 199 156.938 198.005 158.963 196.015C160.988 194.025 162 191.703 162 189.05C162 186.397 160.988 184.075 158.963 182.085C156.938 180.095 154.575 179.1 151.875 179.1H131.625C128.925 179.1 126.562 180.095 124.537 182.085C122.512 184.075 121.5 186.397 121.5 189.05C121.5 191.703 122.512 194.025 124.537 196.015C126.562 198.005 128.925 199 131.625 199ZM192.375 278.6H212.625C215.325 278.6 217.688 277.605 219.713 275.615C221.738 273.625 222.75 271.303 222.75 268.65C222.75 265.997 221.738 263.675 219.713 261.685C217.688 259.695 215.325 258.7 212.625 258.7H192.375C189.675 258.7 187.312 259.695 185.287 261.685C183.262 263.675 182.25 265.997 182.25 268.65C182.25 271.303 183.262 273.625 185.287 275.615C187.312 277.605 189.675 278.6 192.375 278.6ZM192.375 238.8H212.625C215.325 238.8 217.688 237.805 219.713 235.815C221.738 233.825 222.75 231.503 222.75 228.85C222.75 226.197 221.738 223.875 219.713 221.885C217.688 219.895 215.325 218.9 212.625 218.9H192.375C189.675 218.9 187.312 219.895 185.287 221.885C183.262 223.875 182.25 226.197 182.25 228.85C182.25 231.503 183.262 233.825 185.287 235.815C187.312 237.805 189.675 238.8 192.375 238.8ZM192.375 199H212.625C215.325 199 217.688 198.005 219.713 196.015C221.738 194.025 222.75 191.703 222.75 189.05C222.75 186.397 221.738 184.075 219.713 182.085C217.688 180.095 215.325 179.1 212.625 179.1H192.375C189.675 179.1 187.312 180.095 185.287 182.085C183.262 184.075 182.25 186.397 182.25 189.05C182.25 191.703 183.262 194.025 185.287 196.015C187.312 198.005 189.675 199 192.375 199ZM253.125 278.6H273.375C276.075 278.6 278.438 277.605 280.462 275.615C282.488 273.625 283.5 271.303 283.5 268.65C283.5 265.997 282.488 263.675 280.462 261.685C278.438 259.695 276.075 258.7 273.375 258.7H253.125C250.425 258.7 248.062 259.695 246.037 261.685C244.012 263.675 243 265.997 243 268.65C243 271.303 244.012 273.625 246.037 275.615C248.062 277.605 250.425 278.6 253.125 278.6ZM253.125 238.8H273.375C276.075 238.8 278.438 237.805 280.462 235.815C282.488 233.825 283.5 231.503 283.5 228.85C283.5 226.197 282.488 223.875 280.462 221.885C278.438 219.895 276.075 218.9 273.375 218.9H253.125C250.425 218.9 248.062 219.895 246.037 221.885C244.012 223.875 243 226.197 243 228.85C243 231.503 244.012 233.825 246.037 235.815C248.062 237.805 250.425 238.8 253.125 238.8ZM253.125 199H273.375C276.075 199 278.438 198.005 280.462 196.015C282.488 194.025 283.5 191.703 283.5 189.05C283.5 186.397 282.488 184.075 280.462 182.085C278.438 180.095 276.075 179.1 273.375 179.1H253.125C250.425 179.1 248.062 180.095 246.037 182.085C244.012 184.075 243 186.397 243 189.05C243 191.703 244.012 194.025 246.037 196.015C248.062 198.005 250.425 199 253.125 199Z" fill="#FFC973"/>
</svg>
