<svg width="428" height="413" viewBox="0 0 428 413" fill="none" xmlns="http://www.w3.org/2000/svg">
<path d="M405.692 184.129V378.583C405.692 387.761 402.498 395.792 396.11 402.675C389.721 409.558 382.268 413 373.75 413H53.796C45.278 413 37.8249 409.558 31.4364 402.675C25.048 395.792 21.8538 387.761 21.8538 378.583V184.129C11.9162 174.951 5.35032 163.67 2.1561 150.286C-1.03812 136.902 -0.683209 123.518 3.22084 110.133L26.1127 32.6958C28.952 22.3708 33.9208 14.3403 41.0191 8.60417C48.1174 2.86806 56.2804 0 65.5081 0H359.909C369.846 0 378.542 2.96366 385.995 8.89097C393.448 14.8183 398.594 22.7532 401.433 32.6958L424.858 110.133C428.762 123.518 429.028 136.902 425.656 150.286C422.285 163.67 415.63 174.951 405.692 184.129ZM261.953 166.347C272.245 166.347 280.94 162.714 288.039 155.449C295.137 148.183 297.976 139.387 296.557 129.062L283.247 34.4167H230.01V129.062C230.01 139.005 233.027 147.705 239.061 155.162C245.094 162.619 252.725 166.347 261.953 166.347ZM162.399 166.347C172.337 166.347 180.766 162.714 187.687 155.449C194.608 148.183 198.068 139.387 198.068 129.062V34.4167H144.831L131.522 129.062C130.102 139.005 132.587 147.705 138.975 155.162C145.364 162.619 153.172 166.347 162.399 166.347ZM65.5081 166.347C74.026 166.347 81.3905 163.192 87.6014 156.883C93.8124 150.573 97.4503 142.829 98.515 133.651L112.357 34.4167H59.1197L34.6307 118.164C31.0815 130.019 32.5012 141.013 38.8896 151.147C45.2781 161.28 54.1509 166.347 65.5081 166.347ZM362.038 166.347C373.395 166.347 382.357 161.376 388.923 151.433C395.489 141.491 396.997 130.401 393.448 118.164L368.959 34.4167H315.722L329.564 133.651C330.628 142.829 334.266 150.573 340.477 156.883C346.688 163.192 353.875 166.347 362.038 166.347ZM53.796 378.583H373.75V200.19C374.105 200.573 372.952 200.764 370.29 200.764H362.038C353.165 200.764 344.736 198.756 336.751 194.741C328.765 190.726 320.868 184.512 313.06 176.099C307.381 183.747 300.283 189.77 291.765 194.167C283.247 198.565 273.842 200.764 263.55 200.764C252.902 200.764 243.763 199.139 236.133 195.888C228.502 192.638 221.138 187.188 214.039 179.54C208.716 186.424 201.972 191.682 193.809 195.315C185.646 198.947 176.418 200.764 166.126 200.764C155.124 200.764 145.364 198.661 136.846 194.454C128.328 190.248 121.052 184.129 115.018 176.099C106.501 184.129 98.1601 190.248 89.9971 194.454C81.8341 198.661 73.6711 200.764 65.5081 200.764H58.3211C56.0142 200.764 54.5058 200.573 53.796 200.19V378.583ZM373.75 378.583H53.796H373.75Z" fill="#7B5BEC"/>
</svg>
