<svg width="398" height="455" viewBox="0 0 398 455" fill="none" xmlns="http://www.w3.org/2000/svg">
<path d="M312.714 142.188V113.75C312.714 51.0275 261.702 0 199 0C136.297 0 85.2857 51.0275 85.2857 113.75V142.188H0V383.906C0 423.17 31.8196 455 71.0714 455H326.929C366.18 455 398 423.17 398 383.906V142.188H312.714ZM142.143 113.75C142.143 82.3888 167.649 56.875 199 56.875C230.351 56.875 255.857 82.3888 255.857 113.75V142.188H142.143V113.75ZM284.286 220.391C272.51 220.391 262.964 210.842 262.964 199.062C262.964 187.283 272.51 177.734 284.286 177.734C296.061 177.734 305.607 187.283 305.607 199.062C305.607 210.842 296.061 220.391 284.286 220.391ZM113.714 220.391C101.939 220.391 92.3929 210.842 92.3929 199.062C92.3929 187.283 101.939 177.734 113.714 177.734C125.49 177.734 135.036 187.283 135.036 199.062C135.036 210.842 125.49 220.391 113.714 220.391Z" fill="#E40979"/>
</svg>
