<svg width="39" height="32" viewBox="0 0 39 32" fill="none" xmlns="http://www.w3.org/2000/svg">
<path d="M6.96029 0C5.28058 0 3.66967 0.674284 2.48194 1.87452C1.29421 3.07475 0.626953 4.70261 0.626953 6.4V7.0432L19.627 17.3824L38.627 7.0464V6.4C38.627 4.70261 37.9597 3.07475 36.772 1.87452C35.5842 0.674284 33.9733 0 32.2936 0H6.96029ZM38.627 10.6784L20.3775 20.608C20.1468 20.7335 19.8889 20.7992 19.627 20.7992C19.365 20.7992 19.1071 20.7335 18.8765 20.608L0.626953 10.6784V25.6C0.626953 27.2974 1.29421 28.9252 2.48194 30.1255C3.66967 31.3257 5.28058 32 6.96029 32H32.2936C33.9733 32 35.5842 31.3257 36.772 30.1255C37.9597 28.9252 38.627 27.2974 38.627 25.6V10.6784Z" fill="white"/>
</svg>
