<svg width="47" height="33" viewBox="0 0 47 33" fill="none" xmlns="http://www.w3.org/2000/svg">
<path d="M45.6651 5.16315C45.1358 3.13082 43.5762 1.53022 41.5961 0.987034C38.0069 0 23.6147 0 23.6147 0C23.6147 0 9.22256 0 5.63329 0.987034C3.65313 1.53031 2.09358 3.13082 1.56426 5.16315C0.602539 8.84687 0.602539 16.5326 0.602539 16.5326C0.602539 16.5326 0.602539 24.2183 1.56426 27.9021C2.09358 29.9344 3.65313 31.4683 5.63329 32.0115C9.22256 32.9985 23.6147 32.9985 23.6147 32.9985C23.6147 32.9985 38.0068 32.9985 41.5961 32.0115C43.5762 31.4683 45.1358 29.9344 45.6651 27.9021C46.6268 24.2183 46.6268 16.5326 46.6268 16.5326C46.6268 16.5326 46.6268 8.84687 45.6651 5.16315ZM18.9076 23.5107V9.55454L30.9366 16.5328L18.9076 23.5107Z" fill="white"/>
</svg>
