<svg width="379" height="422" viewBox="0 0 379 422" fill="none" xmlns="http://www.w3.org/2000/svg">
<path fill-rule="evenodd" clip-rule="evenodd" d="M63.1667 42.2H315.833C321.418 42.2 326.773 44.423 330.722 48.3801C334.671 52.3371 336.889 57.7039 336.889 63.3V126.6H42.1111V63.3C42.1111 57.7039 44.3295 52.3371 48.2781 48.3801C52.2268 44.423 57.5824 42.2 63.1667 42.2ZM336.889 358.7V168.8H42.1111V358.7C42.1111 364.296 44.3295 369.663 48.2781 373.62C52.2268 377.577 57.5824 379.8 63.1667 379.8H315.833C321.418 379.8 326.773 377.577 330.722 373.62C334.671 369.663 336.889 364.296 336.889 358.7ZM0 63.3C0 46.5118 6.65504 30.4112 18.5011 18.5401C30.3471 6.66909 46.4138 0 63.1667 0H315.833C332.586 0 348.653 6.66909 360.499 18.5401C372.345 30.4112 379 46.5118 379 63.3V358.7C379 375.488 372.345 391.589 360.499 403.46C348.653 415.331 332.586 422 315.833 422H63.1667C46.4138 422 30.3471 415.331 18.5011 403.46C6.65504 391.589 0 375.488 0 358.7V63.3ZM84.2222 63.3C78.6379 63.3 73.2824 65.523 69.3337 69.48C65.385 73.4371 63.1667 78.8039 63.1667 84.4C63.1667 89.9961 65.385 95.3629 69.3337 99.32C73.2824 103.277 78.6379 105.5 84.2222 105.5H126.333C131.918 105.5 137.273 103.277 141.222 99.32C145.171 95.3629 147.389 89.9961 147.389 84.4C147.389 78.8039 145.171 73.4371 141.222 69.48C137.273 65.523 131.918 63.3 126.333 63.3H84.2222ZM231.611 105.5C237.195 105.5 242.551 103.277 246.5 99.32C250.448 95.3629 252.667 89.9961 252.667 84.4C252.667 78.8039 250.448 73.4371 246.5 69.48C242.551 65.523 237.195 63.3 231.611 63.3C226.027 63.3 220.671 65.523 216.723 69.48C212.774 73.4371 210.556 78.8039 210.556 84.4C210.556 89.9961 212.774 95.3629 216.723 99.32C220.671 103.277 226.027 105.5 231.611 105.5ZM315.833 84.4C315.833 89.9961 313.615 95.3629 309.666 99.32C305.718 103.277 300.362 105.5 294.778 105.5C289.193 105.5 283.838 103.277 279.889 99.32C275.941 95.3629 273.722 89.9961 273.722 84.4C273.722 78.8039 275.941 73.4371 279.889 69.48C283.838 65.523 289.193 63.3 294.778 63.3C300.362 63.3 305.718 65.523 309.666 69.48C313.615 73.4371 315.833 78.8039 315.833 84.4ZM231.611 274.3C231.611 285.492 227.174 296.226 219.277 304.14C211.38 312.054 200.669 316.5 189.5 316.5C178.331 316.5 167.62 312.054 159.723 304.14C151.826 296.226 147.389 285.492 147.389 274.3C147.389 263.108 151.826 252.374 159.723 244.46C167.62 236.546 178.331 232.1 189.5 232.1C200.669 232.1 211.38 236.546 219.277 244.46C227.174 252.374 231.611 263.108 231.611 274.3ZM273.722 274.3C273.722 296.684 264.849 318.152 249.054 333.98C233.259 349.808 211.837 358.7 189.5 358.7C167.163 358.7 145.741 349.808 129.946 333.98C114.151 318.152 105.278 296.684 105.278 274.3C105.278 251.916 114.151 230.448 129.946 214.62C145.741 198.792 167.163 189.9 189.5 189.9C211.837 189.9 233.259 198.792 249.054 214.62C264.849 230.448 273.722 251.916 273.722 274.3Z" fill="#FFC973"/>
</svg>
