<svg width="398" height="320" viewBox="0 0 398 320" fill="none" xmlns="http://www.w3.org/2000/svg">
<path d="M388.05 220H378.1V152.438C378.1 144.5 374.928 136.875 369.332 131.25L307.206 68.8125C301.609 63.1875 294.022 60 286.125 60H258.7V30C258.7 13.4375 245.33 0 228.85 0H29.85C13.3703 0 0 13.4375 0 30V230C0 246.562 13.3703 260 29.85 260H39.8C39.8 293.125 66.5406 320 99.5 320C132.459 320 159.2 293.125 159.2 260H238.8C238.8 293.125 265.541 320 298.5 320C331.459 320 358.2 293.125 358.2 260H388.05C393.522 260 398 255.5 398 250V230C398 224.5 393.522 220 388.05 220ZM99.5 290C83.0203 290 69.65 276.562 69.65 260C69.65 243.438 83.0203 230 99.5 230C115.98 230 129.35 243.438 129.35 260C129.35 276.562 115.98 290 99.5 290ZM298.5 290C282.02 290 268.65 276.562 268.65 260C268.65 243.438 282.02 230 298.5 230C314.98 230 328.35 243.438 328.35 260C328.35 276.562 314.98 290 298.5 290ZM348.25 160H258.7V90H286.125L348.25 152.438V160Z" fill="#40BE81"/>
</svg>
