<svg width="410" height="412" viewBox="0 0 410 412" fill="none" xmlns="http://www.w3.org/2000/svg">
<path fill-rule="evenodd" clip-rule="evenodd" d="M0 206C0 92.2318 91.7841 0 205 0C318.216 0 410 92.2318 410 206C410 319.768 318.216 412 205 412C91.7841 412 0 319.768 0 206ZM158.931 114.573C161.907 112.973 165.259 112.215 168.63 112.38C172 112.545 175.264 113.627 178.07 115.51L289.889 190.419C292.441 192.129 294.534 194.446 295.981 197.164C297.429 199.882 298.186 202.917 298.186 206C298.186 209.083 297.429 212.118 295.981 214.836C294.534 217.554 292.441 219.871 289.889 221.581L178.07 296.49C175.264 298.372 172.001 299.453 168.631 299.617C165.261 299.782 161.91 299.024 158.935 297.424C155.96 295.825 153.473 293.444 151.74 290.535C150.006 287.626 149.09 284.3 149.091 280.909V131.091C149.09 127.701 150.004 124.373 151.737 121.464C153.47 118.555 155.956 116.174 158.931 114.573Z" fill="white" fill-opacity="0.9"/>
</svg>
