<svg width="425" height="425" viewBox="0 0 425 425" fill="none" xmlns="http://www.w3.org/2000/svg">
<path d="M14.9995 297.5C10.8061 297.5 7.33846 296.051 4.59661 293.153C1.85477 290.256 0.806425 286.875 1.45156 283.011C4.99983 255.322 18.3865 232.06 41.6115 213.224C64.8365 194.389 100.158 184.972 147.576 184.972C194.993 184.972 230.315 194.389 253.54 213.224C276.765 232.06 290.151 255.322 293.7 283.011C294.345 286.875 293.296 290.256 290.555 293.153C287.813 296.051 284.345 297.5 280.152 297.5H14.9995ZM323.698 425V396.023H365.31L392.89 115.909H200.316L198.864 102.869C198.219 98.3617 199.348 94.5786 202.251 91.5199C205.154 88.4612 208.864 86.9318 213.38 86.9318H296.119V14.4886C296.119 10.303 297.49 6.84186 300.232 4.10511C302.973 1.36837 306.441 0 310.634 0C314.828 0 318.295 1.36837 321.037 4.10511C323.779 6.84186 325.15 10.303 325.15 14.4886V86.9318H410.308C414.824 86.9318 418.534 88.4612 421.437 91.5199C424.34 94.5786 425.469 98.3617 424.824 102.869L393.857 396.023C392.89 404.394 389.422 411.316 383.454 416.79C377.487 422.263 369.987 425 360.955 425H323.698ZM323.698 396.023H365.31H323.698ZM258.862 268.523C253.056 252.102 241.121 238.902 223.057 228.92C204.993 218.939 179.671 213.949 147.092 213.949C114.512 213.949 89.1905 218.939 71.1266 228.92C53.0627 238.902 40.9663 252.102 34.8375 268.523H258.862ZM14.5156 359.318C10.3222 359.318 6.8546 357.95 4.11276 355.213C1.37092 352.476 0 349.015 0 344.83C0 340.644 1.37092 337.183 4.11276 334.446C6.8546 331.709 10.3222 330.341 14.5156 330.341H279.668C283.861 330.341 287.329 331.709 290.071 334.446C292.812 337.183 294.183 340.644 294.183 344.83C294.183 349.015 292.812 352.476 290.071 355.213C287.329 357.95 283.861 359.318 279.668 359.318H14.5156ZM14.5156 425C10.3222 425 6.8546 423.632 4.11276 420.895C1.37092 418.158 0 414.697 0 410.511C0 406.326 1.37092 402.865 4.11276 400.128C6.8546 397.391 10.3222 396.023 14.5156 396.023H279.668C283.861 396.023 287.329 397.391 290.071 400.128C292.812 402.865 294.183 406.326 294.183 410.511C294.183 414.697 292.812 418.158 290.071 420.895C287.329 423.632 283.861 425 279.668 425H14.5156Z" fill="#40BE81"/>
</svg>
