<svg width="412" height="362" viewBox="0 0 412 362" fill="none" xmlns="http://www.w3.org/2000/svg">
<path d="M371.122 77.5714H64.375C57.2616 77.5714 51.5 71.7859 51.5 64.6429C51.5 57.4998 57.2616 51.7143 64.375 51.7143H373.375C380.488 51.7143 386.25 45.9288 386.25 38.7857C386.25 17.3647 368.957 0 347.625 0H51.5C23.0543 0 0 23.1502 0 51.7143V310.286C0 338.85 23.0543 362 51.5 362H371.122C393.669 362 412 344.603 412 323.214V116.357C412 94.9684 393.669 77.5714 371.122 77.5714ZM334.75 245.643C320.531 245.643 309 234.064 309 219.786C309 205.508 320.531 193.929 334.75 193.929C348.969 193.929 360.5 205.508 360.5 219.786C360.5 234.064 348.969 245.643 334.75 245.643Z" fill="#00F6FF"/>
</svg>
