<svg width="34" height="33" viewBox="0 0 34 33" fill="none" xmlns="http://www.w3.org/2000/svg">
<path d="M17.1218 10.9972C14.0922 10.9972 11.6198 13.4696 11.6198 16.4993C11.6198 19.5289 14.0922 22.0014 17.1218 22.0014C20.1514 22.0014 22.6238 19.5289 22.6238 16.4993C22.6238 13.4696 20.1514 10.9972 17.1218 10.9972ZM33.6236 16.4993C33.6236 14.2208 33.6443 11.963 33.5163 9.68872C33.3884 7.04705 32.7858 4.70257 30.8541 2.77085C28.9183 0.835004 26.578 0.236501 23.9363 0.108545C21.6579 -0.0194104 19.4002 0.00122773 17.1259 0.00122773C14.8475 0.00122773 12.5898 -0.0194104 10.3155 0.108545C7.67387 0.236501 5.32944 0.839131 3.39775 2.77085C1.46194 4.7067 0.86345 7.04705 0.735497 9.68872C0.607543 11.9672 0.628181 14.225 0.628181 16.4993C0.628181 18.7736 0.607543 21.0355 0.735497 23.3098C0.86345 25.9515 1.46607 28.296 3.39775 30.2277C5.33356 32.1635 7.67387 32.762 10.3155 32.89C12.5939 33.0179 14.8516 32.9973 17.1259 32.9973C19.4043 32.9973 21.6621 33.0179 23.9363 32.89C26.578 32.762 28.9224 32.1594 30.8541 30.2277C32.7899 28.2918 33.3884 25.9515 33.5163 23.3098C33.6484 21.0355 33.6236 18.7777 33.6236 16.4993ZM17.1218 24.965C12.437 24.965 8.65622 21.1841 8.65622 16.4993C8.65622 11.8144 12.437 8.03355 17.1218 8.03355C21.8065 8.03355 25.5873 11.8144 25.5873 16.4993C25.5873 21.1841 21.8065 24.965 17.1218 24.965ZM25.9341 9.66395C24.8403 9.66395 23.957 8.78064 23.957 7.68683C23.957 6.59301 24.8403 5.70971 25.9341 5.70971C27.0279 5.70971 27.9111 6.59301 27.9111 7.68683C27.9115 7.94656 27.8606 8.2038 27.7613 8.44383C27.6621 8.68385 27.5165 8.90194 27.3328 9.08559C27.1491 9.26925 26.9311 9.41487 26.691 9.51412C26.451 9.61336 26.1938 9.66428 25.9341 9.66395Z" fill="white"/>
</svg>
