<svg width="967" height="1055" viewBox="0 0 967 1055" fill="none" xmlns="http://www.w3.org/2000/svg">
<path opacity="0.4" d="M106.363 165.577C-11.6555 109.549 -32.6588 -13.8102 49.354 -146.999L985 -291L1017 979C934 1082.5 740 1062.5 656.5 1017C542.131 954.679 468.007 777.28 425 707C381.993 636.72 278.492 665 211.5 587C144.508 509 288.891 435.886 302.893 369.046C316.896 302.206 224.381 221.604 106.363 165.577Z" fill="url(#paint0_linear_305_3)"/>
<path d="M106.363 137.577C-11.6555 81.549 -32.6588 -41.8102 49.354 -174.999L985 -319V1006.5C933.825 926.882 805.772 908.892 702.956 891.985C574.436 870.852 527.929 706.209 484.922 635.929C441.915 565.648 302.893 632.488 224.381 541.075C145.869 449.661 288.891 407.886 302.893 341.046C316.896 274.206 224.381 193.604 106.363 137.577Z" fill="url(#paint1_linear_305_3)"/>
<defs>
<linearGradient id="paint0_linear_305_3" x1="1080.51" y1="848.722" x2="403.106" y2="145.954" gradientUnits="userSpaceOnUse">
<stop stop-color="#961F60"/>
<stop offset="1" stop-color="#E40979"/>
</linearGradient>
<linearGradient id="paint1_linear_305_3" x1="1080.51" y1="820.722" x2="403.106" y2="117.955" gradientUnits="userSpaceOnUse">
<stop stop-color="#961F60"/>
<stop offset="1" stop-color="#E40979"/>
</linearGradient>
</defs>
</svg>
